<mxfile host="app.diagrams.net" modified="2023-09-05T17:28:05.700Z" agent="Mozilla/5.0 (Windows NT 10.0; Win64; x64) AppleWebKit/537.36 (KHTML, like Gecko) Chrome/116.0.0.0 Safari/537.36" etag="gTNQmOUeCG3P0fCM5Y46" version="21.7.2" type="device">
  <diagram name="Page-1" id="AH_W6rJPJZh1zAS1JdJ8">
    <mxGraphModel dx="1225" dy="1108" grid="1" gridSize="10" guides="1" tooltips="1" connect="1" arrows="1" fold="1" page="1" pageScale="1" pageWidth="850" pageHeight="1100" math="0" shadow="0">
      <root>
        <mxCell id="0" />
        <mxCell id="1" parent="0" />
        <mxCell id="zwki1-v5fkkkG0a31AAx-23" value="" style="edgeStyle=orthogonalEdgeStyle;rounded=0;orthogonalLoop=1;jettySize=auto;html=1;" parent="1" source="zwki1-v5fkkkG0a31AAx-16" target="zwki1-v5fkkkG0a31AAx-17" edge="1">
          <mxGeometry relative="1" as="geometry" />
        </mxCell>
        <mxCell id="zwki1-v5fkkkG0a31AAx-16" value="Buka Websiite" style="ellipse;whiteSpace=wrap;html=1;fillColor=#dae8fc;strokeColor=#6c8ebf;" parent="1" vertex="1">
          <mxGeometry x="230" y="290" width="140" height="70" as="geometry" />
        </mxCell>
        <mxCell id="zwki1-v5fkkkG0a31AAx-26" style="edgeStyle=orthogonalEdgeStyle;rounded=0;orthogonalLoop=1;jettySize=auto;html=1;entryX=0.5;entryY=0;entryDx=0;entryDy=0;" parent="1" source="zwki1-v5fkkkG0a31AAx-17" target="zwki1-v5fkkkG0a31AAx-18" edge="1">
          <mxGeometry relative="1" as="geometry">
            <Array as="points">
              <mxPoint x="520" y="400" />
              <mxPoint x="300" y="400" />
            </Array>
          </mxGeometry>
        </mxCell>
        <mxCell id="zwki1-v5fkkkG0a31AAx-17" value="Tampil Form Login" style="ellipse;whiteSpace=wrap;html=1;fillColor=#dae8fc;strokeColor=#6c8ebf;" parent="1" vertex="1">
          <mxGeometry x="450" y="290" width="140" height="70" as="geometry" />
        </mxCell>
        <mxCell id="zwki1-v5fkkkG0a31AAx-25" value="" style="edgeStyle=orthogonalEdgeStyle;rounded=0;orthogonalLoop=1;jettySize=auto;html=1;" parent="1" source="zwki1-v5fkkkG0a31AAx-18" target="zwki1-v5fkkkG0a31AAx-19" edge="1">
          <mxGeometry relative="1" as="geometry" />
        </mxCell>
        <mxCell id="zwki1-v5fkkkG0a31AAx-18" value="Use Case" style="ellipse;whiteSpace=wrap;html=1;fillColor=#dae8fc;strokeColor=#6c8ebf;" parent="1" vertex="1">
          <mxGeometry x="230" y="435" width="140" height="70" as="geometry" />
        </mxCell>
        <mxCell id="zwki1-v5fkkkG0a31AAx-68" value="" style="edgeStyle=orthogonalEdgeStyle;rounded=0;orthogonalLoop=1;jettySize=auto;html=1;" parent="1" source="zwki1-v5fkkkG0a31AAx-19" target="zwki1-v5fkkkG0a31AAx-20" edge="1">
          <mxGeometry relative="1" as="geometry" />
        </mxCell>
        <mxCell id="zwki1-v5fkkkG0a31AAx-70" value="Ya" style="edgeLabel;html=1;align=center;verticalAlign=middle;resizable=0;points=[];" parent="zwki1-v5fkkkG0a31AAx-68" vertex="1" connectable="0">
          <mxGeometry x="-0.1" y="-1" relative="1" as="geometry">
            <mxPoint as="offset" />
          </mxGeometry>
        </mxCell>
        <mxCell id="zwki1-v5fkkkG0a31AAx-71" style="edgeStyle=orthogonalEdgeStyle;rounded=0;orthogonalLoop=1;jettySize=auto;html=1;entryX=1;entryY=0.5;entryDx=0;entryDy=0;" parent="1" source="zwki1-v5fkkkG0a31AAx-19" target="zwki1-v5fkkkG0a31AAx-17" edge="1">
          <mxGeometry relative="1" as="geometry">
            <mxPoint x="640" y="300" as="targetPoint" />
            <Array as="points">
              <mxPoint x="641" y="470" />
              <mxPoint x="641" y="325" />
            </Array>
          </mxGeometry>
        </mxCell>
        <mxCell id="zwki1-v5fkkkG0a31AAx-72" value="Tidak" style="edgeLabel;html=1;align=center;verticalAlign=middle;resizable=0;points=[];" parent="zwki1-v5fkkkG0a31AAx-71" vertex="1" connectable="0">
          <mxGeometry x="-0.7256" y="-3" relative="1" as="geometry">
            <mxPoint y="-3" as="offset" />
          </mxGeometry>
        </mxCell>
        <mxCell id="zwki1-v5fkkkG0a31AAx-19" value="Benar?" style="rhombus;whiteSpace=wrap;html=1;fillColor=#dae8fc;strokeColor=#6c8ebf;" parent="1" vertex="1">
          <mxGeometry x="480" y="430" width="80" height="80" as="geometry" />
        </mxCell>
        <mxCell id="zwki1-v5fkkkG0a31AAx-21" value="" style="ellipse;html=1;shape=startState;fillColor=#000000;strokeColor=#ff0000;" parent="1" vertex="1">
          <mxGeometry x="285" y="190" width="30" height="30" as="geometry" />
        </mxCell>
        <mxCell id="zwki1-v5fkkkG0a31AAx-22" value="" style="edgeStyle=orthogonalEdgeStyle;html=1;verticalAlign=bottom;endArrow=open;endSize=8;strokeColor=#000000;rounded=0;entryX=0.5;entryY=0;entryDx=0;entryDy=0;" parent="1" source="zwki1-v5fkkkG0a31AAx-21" target="zwki1-v5fkkkG0a31AAx-16" edge="1">
          <mxGeometry relative="1" as="geometry">
            <mxPoint x="300" y="280" as="targetPoint" />
          </mxGeometry>
        </mxCell>
        <mxCell id="zwki1-v5fkkkG0a31AAx-64" value="Admin" style="swimlane;" parent="1" vertex="1">
          <mxGeometry x="167" y="147" width="265" height="773" as="geometry" />
        </mxCell>
        <mxCell id="zwki1-v5fkkkG0a31AAx-76" value="Pendaftaran Ollimpiade" style="ellipse;whiteSpace=wrap;html=1;fillColor=#dae8fc;strokeColor=#6c8ebf;" parent="zwki1-v5fkkkG0a31AAx-64" vertex="1">
          <mxGeometry x="73" y="413" width="140" height="70" as="geometry" />
        </mxCell>
        <mxCell id="zwki1-v5fkkkG0a31AAx-78" value="Memvalidasi&lt;br&gt;Pendaftaran" style="ellipse;whiteSpace=wrap;html=1;fillColor=#dae8fc;strokeColor=#6c8ebf;" parent="zwki1-v5fkkkG0a31AAx-64" vertex="1">
          <mxGeometry x="73" y="613" width="140" height="70" as="geometry" />
        </mxCell>
        <mxCell id="zwki1-v5fkkkG0a31AAx-65" value="Sistem" style="swimlane;" parent="1" vertex="1">
          <mxGeometry x="432" y="147" width="265" height="773" as="geometry">
            <mxRectangle x="425" y="140" width="100" height="30" as="alternateBounds" />
          </mxGeometry>
        </mxCell>
        <mxCell id="zwki1-v5fkkkG0a31AAx-20" value="Tampil Menu Utama" style="ellipse;whiteSpace=wrap;html=1;fillColor=#dae8fc;strokeColor=#6c8ebf;" parent="zwki1-v5fkkkG0a31AAx-65" vertex="1">
          <mxGeometry x="18" y="413" width="140" height="70" as="geometry" />
        </mxCell>
        <mxCell id="zwki1-v5fkkkG0a31AAx-77" value="Menampilkan Nama siswa/siswi pendaftar olimpiade" style="ellipse;whiteSpace=wrap;html=1;fillColor=#dae8fc;strokeColor=#6c8ebf;" parent="zwki1-v5fkkkG0a31AAx-65" vertex="1">
          <mxGeometry x="18" y="513" width="140" height="70" as="geometry" />
        </mxCell>
        <mxCell id="t0MtMs9i2UD_4Wn9dMZK-1" value="" style="edgeStyle=orthogonalEdgeStyle;rounded=0;orthogonalLoop=1;jettySize=auto;html=1;" edge="1" parent="zwki1-v5fkkkG0a31AAx-65" source="zwki1-v5fkkkG0a31AAx-79" target="zwki1-v5fkkkG0a31AAx-82">
          <mxGeometry relative="1" as="geometry" />
        </mxCell>
        <mxCell id="zwki1-v5fkkkG0a31AAx-79" value="pendaftaran disimpan" style="ellipse;whiteSpace=wrap;html=1;fillColor=#dae8fc;strokeColor=#6c8ebf;" parent="zwki1-v5fkkkG0a31AAx-65" vertex="1">
          <mxGeometry x="18" y="613" width="140" height="70" as="geometry" />
        </mxCell>
        <mxCell id="zwki1-v5fkkkG0a31AAx-82" value="" style="ellipse;html=1;shape=endState;fillColor=#000000;strokeColor=#ff0000;" parent="zwki1-v5fkkkG0a31AAx-65" vertex="1">
          <mxGeometry x="73" y="718" width="30" height="30" as="geometry" />
        </mxCell>
        <mxCell id="zwki1-v5fkkkG0a31AAx-84" value="" style="edgeStyle=orthogonalEdgeStyle;rounded=0;orthogonalLoop=1;jettySize=auto;html=1;" parent="1" source="zwki1-v5fkkkG0a31AAx-20" target="zwki1-v5fkkkG0a31AAx-76" edge="1">
          <mxGeometry relative="1" as="geometry" />
        </mxCell>
        <mxCell id="zwki1-v5fkkkG0a31AAx-86" style="edgeStyle=orthogonalEdgeStyle;rounded=0;orthogonalLoop=1;jettySize=auto;html=1;entryX=0;entryY=0.5;entryDx=0;entryDy=0;" parent="1" source="zwki1-v5fkkkG0a31AAx-76" target="zwki1-v5fkkkG0a31AAx-77" edge="1">
          <mxGeometry relative="1" as="geometry">
            <Array as="points">
              <mxPoint x="310" y="695" />
            </Array>
          </mxGeometry>
        </mxCell>
        <mxCell id="zwki1-v5fkkkG0a31AAx-87" style="edgeStyle=orthogonalEdgeStyle;rounded=0;orthogonalLoop=1;jettySize=auto;html=1;entryX=0.5;entryY=0;entryDx=0;entryDy=0;" parent="1" source="zwki1-v5fkkkG0a31AAx-77" target="zwki1-v5fkkkG0a31AAx-78" edge="1">
          <mxGeometry relative="1" as="geometry">
            <Array as="points">
              <mxPoint x="520" y="740" />
              <mxPoint x="310" y="740" />
            </Array>
          </mxGeometry>
        </mxCell>
        <mxCell id="zwki1-v5fkkkG0a31AAx-88" value="" style="edgeStyle=orthogonalEdgeStyle;rounded=0;orthogonalLoop=1;jettySize=auto;html=1;" parent="1" source="zwki1-v5fkkkG0a31AAx-78" target="zwki1-v5fkkkG0a31AAx-79" edge="1">
          <mxGeometry relative="1" as="geometry" />
        </mxCell>
      </root>
    </mxGraphModel>
  </diagram>
</mxfile>
